<?xml version="1.0" standalone="no"?><!DOCTYPE svg PUBLIC "-//W3C//DTD SVG 1.1//EN" "http://www.w3.org/Graphics/SVG/1.1/DTD/svg11.dtd"><svg t="1727015524406" class="icon" viewBox="0 0 1024 1024" version="1.1" xmlns="http://www.w3.org/2000/svg" p-id="5331" xmlns:xlink="http://www.w3.org/1999/xlink" width="16" height="16"><path d="M512 1024C228.072727 1024 0 795.927273 0 512S228.072727 0 512 0s512 228.072727 512 512-228.072727 512-512 512z m0-46.545455c256 0 465.454545-209.454545 465.454545-465.454545S768 46.545455 512 46.545455 46.545455 256 46.545455 512s209.454545 465.454545 465.454545 465.454545z m0-514.327272l148.945455-148.945455c13.963636-13.963636 34.909091-13.963636 48.872727 0 13.963636 13.963636 13.963636 34.909091 0 48.872727L560.872727 512l148.945455 148.945455c13.963636 13.963636 13.963636 34.909091 0 48.872727-13.963636 13.963636-34.909091 13.963636-48.872727 0L512 560.872727l-148.945455 148.945455c-13.963636 13.963636-34.909091 13.963636-48.872727 0-13.963636-13.963636-13.963636-34.909091 0-48.872727l148.945455-148.945455-148.945455-148.945455c-13.963636-13.963636-13.963636-34.909091 0-48.872727 13.963636-13.963636 34.909091-13.963636 48.872727 0l148.945455 148.945455z" fill="#333333" p-id="5332"></path></svg>